<svg xmlns="http://www.w3.org/2000/svg" xmlns:xlink="http://www.w3.org/1999/xlink" width="1920" zoomAndPan="magnify" viewBox="0 0 1440 149.999998" height="200" preserveAspectRatio="xMidYMid meet" version="1.0"><defs><g/></defs><g fill="#000000" fill-opacity="1"><g transform="translate(305.726324, 143.157606)"><g><path d="M 100.15625 -134.59375 L 158.359375 0 L 71.84375 0 L 47.546875 -58.03125 L 35.3125 -58.03125 L 59.078125 0 L 2.796875 0 L 31.46875 -67.828125 L 43.34375 -67.828125 L 37.578125 -81.984375 L 59.953125 -134.59375 Z M 100.15625 -134.59375 "/></g></g></g><g fill="#000000" fill-opacity="1"><g transform="translate(464.092288, 143.157606)"><g><path d="M 87.75 -133.71875 L 87.75 0 L 11.890625 0 L 11.890625 -133.71875 Z M 170.609375 -121.3125 C 173.515625 -117.925781 175.519531 -114.253906 176.625 -110.296875 C 177.738281 -106.335938 178.296875 -102.664062 178.296875 -99.28125 C 178.296875 -90.65625 175.703125 -83.601562 170.515625 -78.125 C 165.328125 -72.65625 159.003906 -68.8125 151.546875 -66.59375 C 159.117188 -64.613281 165.554688 -60.625 170.859375 -54.625 C 176.160156 -48.625 178.8125 -41.367188 178.8125 -32.859375 C 178.8125 -27.148438 177.351562 -21.757812 174.4375 -16.6875 C 171.53125 -11.625 167.539062 -7.578125 162.46875 -4.546875 C 157.40625 -1.515625 151.726562 0 145.4375 0 L 99.28125 0 L 99.28125 -133.71875 L 138.4375 -133.71875 C 146.59375 -133.71875 153.0625 -132.753906 157.84375 -130.828125 C 162.625 -128.910156 166.878906 -125.738281 170.609375 -121.3125 Z M 170.609375 -121.3125 "/></g></g></g><g fill="#000000" fill-opacity="1"><g transform="translate(646.230632, 143.157606)"><g><path d="M 80.9375 0.875 L 69.75 0.875 C 58.5625 0.875 47.894531 -2.066406 37.75 -7.953125 C 27.613281 -13.835938 19.457031 -21.960938 13.28125 -32.328125 C 7.101562 -42.703125 4.015625 -54.242188 4.015625 -66.953125 C 4.015625 -81.515625 7.484375 -93.894531 14.421875 -104.09375 C 21.359375 -114.289062 30.1875 -121.921875 40.90625 -126.984375 C 51.625 -132.054688 62.632812 -134.59375 73.9375 -134.59375 L 80.9375 -134.59375 Z M 169.03125 -66.765625 C 169.03125 -52.203125 165.5625 -39.820312 158.625 -29.625 C 151.695312 -19.425781 142.867188 -11.789062 132.140625 -6.71875 C 121.421875 -1.65625 110.410156 0.875 99.109375 0.875 L 92.125 0.875 L 92.125 -134.59375 L 103.3125 -134.59375 C 114.488281 -134.59375 125.144531 -131.648438 135.28125 -125.765625 C 145.425781 -119.878906 153.585938 -111.75 159.765625 -101.375 C 165.941406 -91.007812 169.03125 -79.472656 169.03125 -66.765625 Z M 169.03125 -66.765625 "/></g></g></g><g fill="#000000" fill-opacity="1"><g transform="translate(819.279547, 143.157606)"><g><path d="M 87.390625 -3.5 C 97.179688 -3.957031 105.539062 -6.34375 112.46875 -10.65625 C 119.40625 -14.96875 124.648438 -20.617188 128.203125 -27.609375 C 131.765625 -34.609375 133.546875 -42.242188 133.546875 -50.515625 L 133.546875 -82.328125 L 94.046875 -133.71875 L 138.78125 -133.71875 L 138.78125 -50.515625 C 138.78125 -43.640625 137.5 -36.707031 134.9375 -29.71875 C 132.375 -22.726562 127.773438 -16.375 121.140625 -10.65625 C 116.128906 -6.226562 110.179688 -2.992188 103.296875 -0.953125 C 96.421875 1.078125 87.566406 2.09375 76.734375 2.09375 C 64.492188 2.09375 54.410156 0.867188 46.484375 -1.578125 C 38.566406 -4.023438 31.695312 -8.046875 25.875 -13.640625 C 20.625 -18.878906 16.742188 -25.140625 14.234375 -32.421875 C 11.734375 -39.703125 10.484375 -46.609375 10.484375 -53.140625 L 10.484375 -133.71875 L 87.390625 -133.71875 Z M 87.390625 -3.5 "/></g></g></g><g fill="#000000" fill-opacity="1"><g transform="translate(968.556088, 143.157606)"><g><path d="M 160.109375 -133.71875 L 160.109375 -73.59375 L 121.828125 -128.125 L 121.3125 -128.125 L 121.3125 0 L 44.390625 0 L 44.390625 -128.125 L 43.875 -128.125 L 5.59375 -73.59375 L 5.59375 -133.71875 Z M 160.109375 -133.71875 "/></g></g></g></svg>