<svg xmlns="http://www.w3.org/2000/svg" xmlns:xlink="http://www.w3.org/1999/xlink" width="1920" zoomAndPan="magnify" viewBox="0 0 1440 149.999998" height="200" preserveAspectRatio="xMidYMid meet" version="1.0"><defs><g/></defs><g fill="#000000" fill-opacity="1"><g transform="translate(161.948985, 143.157606)"><g><path d="M 143.15625 -75.15625 L 84.25 -131.453125 L 83.734375 -131.453125 L 83.734375 -2.796875 L 84.25 -2.796875 L 143.15625 -59.078125 L 143.15625 0 L 73.9375 0 C 62.519531 0 51.65625 -3 41.34375 -9 C 31.03125 -15 22.695312 -23.15625 16.34375 -33.46875 C 9.988281 -43.78125 6.8125 -55.113281 6.8125 -67.46875 C 6.8125 -76.90625 8.765625 -85.789062 12.671875 -94.125 C 16.578125 -102.457031 22.140625 -109.945312 29.359375 -116.59375 C 34.835938 -121.601562 41.945312 -125.707031 50.6875 -128.90625 C 59.425781 -132.113281 68.34375 -133.71875 77.4375 -133.71875 L 143.15625 -133.71875 Z M 143.15625 -75.15625 "/></g></g></g><g fill="#000000" fill-opacity="1"><g transform="translate(311.225519, 143.157606)"><g><path d="M 80.9375 0.875 L 69.75 0.875 C 58.5625 0.875 47.894531 -2.066406 37.75 -7.953125 C 27.613281 -13.835938 19.457031 -21.960938 13.28125 -32.328125 C 7.101562 -42.703125 4.015625 -54.242188 4.015625 -66.953125 C 4.015625 -81.515625 7.484375 -93.894531 14.421875 -104.09375 C 21.359375 -114.289062 30.1875 -121.921875 40.90625 -126.984375 C 51.625 -132.054688 62.632812 -134.59375 73.9375 -134.59375 L 80.9375 -134.59375 Z M 169.03125 -66.765625 C 169.03125 -52.203125 165.5625 -39.820312 158.625 -29.625 C 151.695312 -19.425781 142.867188 -11.789062 132.140625 -6.71875 C 121.421875 -1.65625 110.410156 0.875 99.109375 0.875 L 92.125 0.875 L 92.125 -134.59375 L 103.3125 -134.59375 C 114.488281 -134.59375 125.144531 -131.648438 135.28125 -125.765625 C 145.425781 -119.878906 153.585938 -111.75 159.765625 -101.375 C 165.941406 -91.007812 169.03125 -79.472656 169.03125 -66.765625 Z M 169.03125 -66.765625 "/></g></g></g><g fill="#000000" fill-opacity="1"><g transform="translate(484.274426, 143.157606)"><g><path d="M 71.140625 -133.71875 L 145.078125 -48.9375 L 145.078125 0 L 83.734375 0 L 9.609375 -86.703125 L 9.609375 -133.71875 Z M 145.078125 -133.71875 L 145.078125 -65.71875 L 86.34375 -133.71875 Z M 9.609375 -69.046875 L 68.515625 0 L 9.609375 0 Z M 9.609375 -69.046875 "/></g></g></g><g fill="#000000" fill-opacity="1"><g transform="translate(638.96965, 143.157606)"><g><path d="M 160.109375 -133.71875 L 160.109375 -73.59375 L 121.828125 -128.125 L 121.3125 -128.125 L 121.3125 0 L 44.390625 0 L 44.390625 -128.125 L 43.875 -128.125 L 5.59375 -73.59375 L 5.59375 -133.71875 Z M 160.109375 -133.71875 "/></g></g></g><g fill="#000000" fill-opacity="1"><g transform="translate(804.67707, 143.157606)"><g><path d="M 100.15625 -134.59375 L 158.359375 0 L 71.84375 0 L 47.546875 -58.03125 L 35.3125 -58.03125 L 59.078125 0 L 2.796875 0 L 31.46875 -67.828125 L 43.34375 -67.828125 L 37.578125 -81.984375 L 59.953125 -134.59375 Z M 100.15625 -134.59375 "/></g></g></g><g fill="#000000" fill-opacity="1"><g transform="translate(963.043056, 143.157606)"><g><path d="M 143.15625 -75.15625 L 84.25 -131.453125 L 83.734375 -131.453125 L 83.734375 -2.796875 L 84.25 -2.796875 L 143.15625 -59.078125 L 143.15625 0 L 73.9375 0 C 62.519531 0 51.65625 -3 41.34375 -9 C 31.03125 -15 22.695312 -23.15625 16.34375 -33.46875 C 9.988281 -43.78125 6.8125 -55.113281 6.8125 -67.46875 C 6.8125 -76.90625 8.765625 -85.789062 12.671875 -94.125 C 16.578125 -102.457031 22.140625 -109.945312 29.359375 -116.59375 C 34.835938 -121.601562 41.945312 -125.707031 50.6875 -128.90625 C 59.425781 -132.113281 68.34375 -133.71875 77.4375 -133.71875 L 143.15625 -133.71875 Z M 143.15625 -75.15625 "/></g></g></g><g fill="#000000" fill-opacity="1"><g transform="translate(1112.319597, 143.157606)"><g><path d="M 160.109375 -133.71875 L 160.109375 -73.59375 L 121.828125 -128.125 L 121.3125 -128.125 L 121.3125 0 L 44.390625 0 L 44.390625 -128.125 L 43.875 -128.125 L 5.59375 -73.59375 L 5.59375 -133.71875 Z M 160.109375 -133.71875 "/></g></g></g></svg>