<svg xmlns="http://www.w3.org/2000/svg" xmlns:xlink="http://www.w3.org/1999/xlink" width="1920" zoomAndPan="magnify" viewBox="0 0 1440 149.999998" height="200" preserveAspectRatio="xMidYMid meet" version="1.0"><defs><g/></defs><g fill="#000000" fill-opacity="1"><g transform="translate(79.976337, 143.157606)"><g><path d="M 88.453125 -133.71875 L 88.453125 0 L 11.890625 0 L 11.890625 -133.71875 Z M 175.5 -86.875 C 175.5 -77.195312 173.109375 -68.804688 168.328125 -61.703125 C 163.546875 -54.597656 157.394531 -49.179688 149.875 -45.453125 C 142.363281 -41.722656 134.648438 -39.859375 126.734375 -39.859375 L 99.640625 -39.859375 L 99.640625 -133.71875 L 124.109375 -133.71875 C 133.546875 -133.71875 142.195312 -131.707031 150.0625 -127.6875 C 157.925781 -123.664062 164.128906 -118.097656 168.671875 -110.984375 C 173.222656 -103.878906 175.5 -95.84375 175.5 -86.875 Z M 175.5 -86.875 "/></g></g></g><g fill="#000000" fill-opacity="1"><g transform="translate(256.521175, 143.157606)"><g><path d="M 89.328125 -133.71875 L 89.328125 0 L 12.765625 0 L 12.765625 -133.71875 Z M 178.8125 -99.109375 C 178.8125 -91.066406 176.507812 -84.25 171.90625 -78.65625 C 167.3125 -73.0625 161.457031 -68.984375 154.34375 -66.421875 C 170.894531 -61.054688 179.171875 -49.40625 179.171875 -31.46875 L 179.171875 0 L 100.6875 0 L 100.6875 -133.71875 L 135.640625 -133.71875 C 150.085938 -133.71875 160.894531 -130.453125 168.0625 -123.921875 C 175.226562 -117.398438 178.8125 -109.128906 178.8125 -99.109375 Z M 178.8125 -99.109375 "/></g></g></g><g fill="#000000" fill-opacity="1"><g transform="translate(440.407484, 143.157606)"><g><path d="M 80.9375 0.875 L 69.75 0.875 C 58.5625 0.875 47.894531 -2.066406 37.75 -7.953125 C 27.613281 -13.835938 19.457031 -21.960938 13.28125 -32.328125 C 7.101562 -42.703125 4.015625 -54.242188 4.015625 -66.953125 C 4.015625 -81.515625 7.484375 -93.894531 14.421875 -104.09375 C 21.359375 -114.289062 30.1875 -121.921875 40.90625 -126.984375 C 51.625 -132.054688 62.632812 -134.59375 73.9375 -134.59375 L 80.9375 -134.59375 Z M 169.03125 -66.765625 C 169.03125 -52.203125 165.5625 -39.820312 158.625 -29.625 C 151.695312 -19.425781 142.867188 -11.789062 132.140625 -6.71875 C 121.421875 -1.65625 110.410156 0.875 99.109375 0.875 L 92.125 0.875 L 92.125 -134.59375 L 103.3125 -134.59375 C 114.488281 -134.59375 125.144531 -131.648438 135.28125 -125.765625 C 145.425781 -119.878906 153.585938 -111.75 159.765625 -101.375 C 165.941406 -91.007812 169.03125 -79.472656 169.03125 -66.765625 Z M 169.03125 -66.765625 "/></g></g></g><g fill="#000000" fill-opacity="1"><g transform="translate(613.456376, 143.157606)"><g><path d="M 116.9375 -133.71875 L 116.9375 -40.375 C 116.9375 -33.382812 114.953125 -26.769531 110.984375 -20.53125 C 107.023438 -14.300781 101.695312 -9.320312 95 -5.59375 C 88.300781 -1.863281 80.988281 0 73.0625 0 L 3.84375 0 L 3.84375 -3.671875 L 4.71875 -3.671875 C 17.070312 -4.015625 26.21875 -6.804688 32.15625 -12.046875 C 38.101562 -17.296875 41.078125 -24.992188 41.078125 -35.140625 L 41.078125 -133.71875 Z M 116.9375 -133.71875 "/></g></g></g><g fill="#000000" fill-opacity="1"><g transform="translate(739.135339, 143.157606)"><g><path d="M 152.078125 -133.71875 L 152.078125 -83.375 L 138.4375 -93.515625 L 138.4375 -43.703125 L 152.078125 -54.71875 L 152.078125 0 L 11.359375 0 L 11.359375 -133.71875 Z M 137.921875 -94.046875 L 88.796875 -130.921875 L 88.265625 -130.921875 L 88.265625 -67.640625 Z M 88.265625 -2.796875 L 88.796875 -2.796875 L 138.4375 -43.171875 L 88.265625 -66.078125 Z M 88.265625 -2.796875 "/></g></g></g><g fill="#000000" fill-opacity="1"><g transform="translate(897.50128, 143.157606)"><g><path d="M 143.15625 -75.15625 L 84.25 -131.453125 L 83.734375 -131.453125 L 83.734375 -2.796875 L 84.25 -2.796875 L 143.15625 -59.078125 L 143.15625 0 L 73.9375 0 C 62.519531 0 51.65625 -3 41.34375 -9 C 31.03125 -15 22.695312 -23.15625 16.34375 -33.46875 C 9.988281 -43.78125 6.8125 -55.113281 6.8125 -67.46875 C 6.8125 -76.90625 8.765625 -85.789062 12.671875 -94.125 C 16.578125 -102.457031 22.140625 -109.945312 29.359375 -116.59375 C 34.835938 -121.601562 41.945312 -125.707031 50.6875 -128.90625 C 59.425781 -132.113281 68.34375 -133.71875 77.4375 -133.71875 L 143.15625 -133.71875 Z M 143.15625 -75.15625 "/></g></g></g><g fill="#000000" fill-opacity="1"><g transform="translate(1046.777821, 143.157606)"><g><path d="M 160.109375 -133.71875 L 160.109375 -73.59375 L 121.828125 -128.125 L 121.3125 -128.125 L 121.3125 0 L 44.390625 0 L 44.390625 -128.125 L 43.875 -128.125 L 5.59375 -73.59375 L 5.59375 -133.71875 Z M 160.109375 -133.71875 "/></g></g></g><g fill="#000000" fill-opacity="1"><g transform="translate(1212.485241, 143.157606)"><g><path d="M 138.78125 -133.71875 L 138.78125 -79.53125 L 72.71875 -133.71875 Z M 54.359375 -133.015625 L 55.578125 -133.015625 L 127.609375 -74.109375 C 129.816406 -72.128906 131.851562 -70.175781 133.71875 -68.25 C 135.582031 -66.332031 137.851562 -63.566406 140.53125 -59.953125 C 144.5 -54.472656 146.484375 -47.945312 146.484375 -40.375 C 146.484375 -33.738281 144.847656 -27.332031 141.578125 -21.15625 C 138.316406 -14.976562 133.21875 -9.90625 126.28125 -5.9375 C 119.351562 -1.976562 110.765625 0 100.515625 0 L 35.828125 -48.9375 C 26.742188 -55.8125 20.070312 -62.832031 15.8125 -70 C 11.5625 -77.164062 9.4375 -84.828125 9.4375 -92.984375 C 9.4375 -101.023438 11.414062 -108.078125 15.375 -114.140625 C 19.34375 -120.203125 24.734375 -124.863281 31.546875 -128.125 C 38.367188 -131.382812 45.972656 -133.015625 54.359375 -133.015625 Z M 10.140625 -55.9375 L 81.453125 0 L 10.140625 0 Z M 10.140625 -55.9375 "/></g></g></g></svg>