<svg xmlns="http://www.w3.org/2000/svg" xmlns:xlink="http://www.w3.org/1999/xlink" width="1920" zoomAndPan="magnify" viewBox="0 0 1440 149.999998" height="200" preserveAspectRatio="xMidYMid meet" version="1.0"><defs><g/></defs><g fill="#000000" fill-opacity="1"><g transform="translate(118.167738, 143.157606)"><g><path d="M 69.046875 -133.71875 L 93.171875 -38.453125 L 83.375 0 L 31.640625 0 L 1.578125 -133.71875 Z M 148.046875 -133.71875 L 176.546875 -38.453125 L 167.109375 0 L 114.671875 0 L 80.578125 -133.71875 Z M 200.484375 -133.71875 L 181.96875 -59.4375 L 159.9375 -133.71875 Z M 200.484375 -133.71875 "/></g></g></g><g fill="#000000" fill-opacity="1"><g transform="translate(318.484949, 143.157606)"><g><path d="M 152.078125 -133.71875 L 152.078125 -83.375 L 138.4375 -93.515625 L 138.4375 -43.703125 L 152.078125 -54.71875 L 152.078125 0 L 11.359375 0 L 11.359375 -133.71875 Z M 137.921875 -94.046875 L 88.796875 -130.921875 L 88.265625 -130.921875 L 88.265625 -67.640625 Z M 88.265625 -2.796875 L 88.796875 -2.796875 L 138.4375 -43.171875 L 88.265625 -66.078125 Z M 88.265625 -2.796875 "/></g></g></g><g fill="#000000" fill-opacity="1"><g transform="translate(476.850912, 143.157606)"><g><path d="M 89.140625 -133.71875 L 89.140625 -3.328125 L 89.671875 -3.328125 L 160.984375 -66.421875 L 160.984375 0 L 11.71875 0 L 11.71875 -133.71875 Z M 89.140625 -133.71875 "/></g></g></g><g fill="#000000" fill-opacity="1"><g transform="translate(640.81036, 143.157606)"><g><path d="M 143.15625 -75.15625 L 84.25 -131.453125 L 83.734375 -131.453125 L 83.734375 -2.796875 L 84.25 -2.796875 L 143.15625 -59.078125 L 143.15625 0 L 73.9375 0 C 62.519531 0 51.65625 -3 41.34375 -9 C 31.03125 -15 22.695312 -23.15625 16.34375 -33.46875 C 9.988281 -43.78125 6.8125 -55.113281 6.8125 -67.46875 C 6.8125 -76.90625 8.765625 -85.789062 12.671875 -94.125 C 16.578125 -102.457031 22.140625 -109.945312 29.359375 -116.59375 C 34.835938 -121.601562 41.945312 -125.707031 50.6875 -128.90625 C 59.425781 -132.113281 68.34375 -133.71875 77.4375 -133.71875 L 143.15625 -133.71875 Z M 143.15625 -75.15625 "/></g></g></g><g fill="#000000" fill-opacity="1"><g transform="translate(790.086901, 143.157606)"><g><path d="M 80.9375 0.875 L 69.75 0.875 C 58.5625 0.875 47.894531 -2.066406 37.75 -7.953125 C 27.613281 -13.835938 19.457031 -21.960938 13.28125 -32.328125 C 7.101562 -42.703125 4.015625 -54.242188 4.015625 -66.953125 C 4.015625 -81.515625 7.484375 -93.894531 14.421875 -104.09375 C 21.359375 -114.289062 30.1875 -121.921875 40.90625 -126.984375 C 51.625 -132.054688 62.632812 -134.59375 73.9375 -134.59375 L 80.9375 -134.59375 Z M 169.03125 -66.765625 C 169.03125 -52.203125 165.5625 -39.820312 158.625 -29.625 C 151.695312 -19.425781 142.867188 -11.789062 132.140625 -6.71875 C 121.421875 -1.65625 110.410156 0.875 99.109375 0.875 L 92.125 0.875 L 92.125 -134.59375 L 103.3125 -134.59375 C 114.488281 -134.59375 125.144531 -131.648438 135.28125 -125.765625 C 145.425781 -119.878906 153.585938 -111.75 159.765625 -101.375 C 165.941406 -91.007812 169.03125 -79.472656 169.03125 -66.765625 Z M 169.03125 -66.765625 "/></g></g></g><g fill="#000000" fill-opacity="1"><g transform="translate(963.135793, 143.157606)"><g><path d="M 69.75 -133.71875 L 109.59375 -70.265625 L 65.546875 -1.046875 L 9.609375 -88.96875 L 9.609375 -133.71875 Z M 190.703125 -133.71875 L 190.703125 0 L 114.84375 0 L 114.84375 -78.140625 L 150.15625 -133.71875 Z M 9.609375 -65.890625 L 11.1875 -65.890625 L 52.96875 0 L 9.609375 0 Z M 9.609375 -65.890625 "/></g></g></g><g fill="#000000" fill-opacity="1"><g transform="translate(1163.452982, 143.157606)"><g><path d="M 152.078125 -133.71875 L 152.078125 -83.375 L 138.4375 -93.515625 L 138.4375 -43.703125 L 152.078125 -54.71875 L 152.078125 0 L 11.359375 0 L 11.359375 -133.71875 Z M 137.921875 -94.046875 L 88.796875 -130.921875 L 88.265625 -130.921875 L 88.265625 -67.640625 Z M 88.265625 -2.796875 L 88.796875 -2.796875 L 138.4375 -43.171875 L 88.265625 -66.078125 Z M 88.265625 -2.796875 "/></g></g></g></svg>